<svg width="96" height="96" viewBox="0 0 480 480" fill="none" xmlns="http://www.w3.org/2000/svg">
<path d="M210.7 273.65L211.4 288.35C211.4 310.283 203.817 326.85 188.65 338.05C173.717 349.483 155.983 355.2 135.45 355.2C129.15 355.2 122.85 354.383 116.55 352.75C110.25 351.117 105.467 349.367 102.2 347.5C98.9333 345.867 94.9667 343.65 90.3 340.85C85.8667 338.283 83.4167 336.883 82.95 336.65L74.55 331.75C69.65 336.65 63.1167 341.083 54.95 345.05C47.0167 349.017 39.9 351 33.6 351L16.1 330L9.8 320.2C14 317.867 16.1 312.733 16.1 304.8V241.8H56.7L74.2 262.8V273.65L75.6 283.8C80.5 286.833 88.0833 288.35 98.35 288.35C108.85 288.35 115.267 283.45 117.6 273.65C113.867 275.75 111.3 277.5 109.9 278.9L75.95 238.3L81.9 233.05C71.8667 226.75 63.8167 221.383 57.75 216.95C51.9167 212.517 44.9167 206.333 36.75 198.4C20.4167 183 12.25 165.033 12.25 144.5C12.25 123.733 20.0667 107.983 35.7 97.25C51.5667 86.2833 69.8833 80.8 90.65 80.8C101.85 80.8 111.883 82.55 120.75 86.05C129.617 89.3167 135.683 92.7 138.95 96.2L143.85 101.1V85H187.25L204.75 106V184.4H163.8L146.3 163.4L141.4 147.3C137.433 145.2 132.767 144.15 127.4 144.15C122.033 144.15 117.483 146.017 113.75 149.75C110.25 153.483 108.5 158.617 108.5 165.15L108.85 168.3C109.55 169 115.967 172.267 128.1 178.1C140.467 183.7 152.25 190.467 163.45 198.4C174.65 206.1 181.65 213.8 184.45 221.5C187.95 221.033 194.25 220.8 203.35 220.8L220.85 241.8V267.35C214.083 267.35 210.7 269.45 210.7 273.65ZM22.75 141.7C22.75 153.133 25.6667 163.4 31.5 172.5C37.5667 181.367 44.1 188.133 51.1 192.8C58.1 197.233 67.0833 202.483 78.05 208.55C89.0167 214.617 96.7167 219.283 101.15 222.55C105.35 221.383 109.55 220.8 113.75 220.8C122.85 220.8 131.6 224.3 140 231.3L146.3 224.3H155.05C158.083 228.267 160.767 230.95 163.1 232.35C165.9 228.85 169.4 226.167 173.6 224.3C168.7 215.667 160.767 207.85 149.8 200.85C138.833 193.617 128.333 188.017 118.3 184.05C108.5 180.083 99.6333 174.717 91.7 167.95C84 160.95 80.15 153.017 80.15 144.15C80.15 138.317 81.4333 132.95 84 128.05C89.3667 118.25 98.2333 113.35 110.6 113.35C131.133 113.35 145.717 126.767 154.35 153.6H179.2V94.8H152.6V119.3H150.5C135.333 100.4 115.5 90.95 91 90.95C72.5667 90.95 56.5833 95.6167 43.05 104.95C29.5167 114.05 22.75 126.3 22.75 141.7ZM183.75 268.05L183.05 252.65C183.05 242.85 186.9 237.95 194.6 237.95V229.2C190.167 229.2 186.783 229.433 184.45 229.9C182.35 230.133 179.55 231.533 176.05 234.1C172.55 236.667 169.283 240.517 166.25 245.65C160.65 244.717 155.517 240.75 150.85 233.75C146.417 239.117 141.75 242.5 136.85 243.9C130.317 234.1 121.45 229.2 110.25 229.2C103.017 229.2 95.9 232.467 88.9 239L94.15 245.65C98.5833 242.15 103.133 240.4 107.8 240.4C112.467 240.4 116.55 241.8 120.05 244.6C123.783 247.4 126 250.667 126.7 254.4C127.633 258.133 128.1 262.333 128.1 267C128.1 271.433 127.4 275.75 126 279.95C124.833 284.15 121.8 288.35 116.9 292.55C112 296.517 105.583 298.5 97.65 298.5C84.35 298.5 72.9167 294.533 63.35 286.6C53.7833 278.667 48.3 267.117 46.9 251.95H26.25V301.3C26.25 310.867 25.0833 316.7 22.75 318.8C27.1833 318.1 33.1333 315.417 40.6 310.75C48.3 306.083 53.0833 302 54.95 298.5C58.2167 300.6 62.8833 303.517 68.95 307.25C87.3833 318.683 103.483 324.4 117.25 324.4C135.917 324.4 151.667 319.617 164.5 310.05C177.333 300.25 183.75 286.25 183.75 268.05Z" fill="black"/>
<path d="M362.863 406.73H358.663C349.563 406.73 343.73 408.363 341.163 411.63C338.83 414.897 337.663 420.147 337.663 427.38V432.63C339.063 431.93 340.23 430.997 341.163 429.83L368.463 457.13C367.063 468.097 363.096 476.38 356.563 481.98C350.03 487.58 342.33 490.38 333.463 490.38C324.596 490.38 315.496 487.23 306.163 480.93C296.83 487.23 287.73 490.38 278.863 490.38C266.263 490.38 254.713 484.43 244.213 472.53C233.713 460.863 227.646 448.73 226.013 436.13L235.813 429.83C236.98 431.93 239.546 432.98 243.513 432.98C247.48 432.98 250.513 431.463 252.613 428.43C254.946 425.163 256.23 422.013 256.463 418.98C256.93 415.947 257.163 411.863 257.163 406.73H253.313L235.813 385.73V360.18C245.38 360.18 252.146 360.53 256.113 361.23V294.73H253.313L235.813 273.73V224.38H335.213L352.713 245.38V288.08L361.463 277.93L355.863 273.73V224.38H446.863L464.363 245.38V294.73H446.163L393.663 355.98L401.713 364.73C414.546 367.763 424.463 375.347 431.463 387.48C438.463 399.38 441.963 412.797 441.963 427.73V432.63C443.596 431.93 444.88 430.997 445.813 429.83L455.263 436.13L472.763 457.13C471.596 468.797 467.28 477.197 459.813 482.33C452.346 487.697 440.68 490.38 424.813 490.38C408.946 490.38 394.596 483.497 381.763 469.73C369.163 456.197 362.863 438.813 362.863 417.58V406.73ZM275.713 371.73C278.046 370.33 280.846 367.53 284.113 363.33H293.213C296.246 367.53 299.163 370.33 301.963 371.73C307.096 364.963 314.446 361.23 324.013 360.53C327.513 360.297 333.23 360.18 341.163 360.18C349.33 360.18 355.28 360.297 359.013 360.53C369.046 361.23 376.63 364.963 381.763 371.73C383.863 370.797 386.313 368.58 389.113 365.08L361.813 336.73L423.763 263.93H437.063V234.18H365.313V263.93H385.963L323.663 336.03H310.713V263.93H325.413V234.18H245.613V263.93H266.613V364.03C270.113 365.897 273.146 368.463 275.713 371.73ZM332.413 368.58C328.213 368.58 324.946 368.813 322.613 369.28C320.513 369.513 317.713 370.913 314.213 373.48C310.713 376.047 307.563 379.897 304.763 385.03C298.93 383.863 293.563 379.78 288.663 372.78C283.763 379.08 278.396 383.163 272.563 385.03C269.763 379.897 266.613 376.047 263.113 373.48C259.613 370.913 256.696 369.513 254.363 369.28C252.263 368.813 249.23 368.58 245.263 368.58V377.33C260.196 377.33 267.663 387.13 267.663 406.73C267.663 413.963 267.196 419.913 266.263 424.58C265.563 429.013 263.346 433.213 259.613 437.18C255.88 440.913 250.513 442.78 243.513 442.78L238.263 441.38C242.93 453.047 250.28 458.88 260.313 458.88C270.346 458.88 279.446 455.263 287.613 448.03H289.713C297.88 455.263 306.863 458.88 316.663 458.88C326.696 458.88 334.28 453.047 339.413 441.38C338.246 442.313 335.68 442.78 331.713 442.78C327.746 442.78 324.013 441.847 320.513 439.98C317.246 437.88 314.913 434.963 313.513 431.23C311.18 424.93 310.013 416.763 310.013 406.73C310.013 387.13 317.48 377.33 332.413 377.33H350.613C365.78 377.33 373.363 387.13 373.363 406.73V415.83C373.363 444.53 385.496 458.88 409.763 458.88C422.13 458.88 430.763 456.78 435.663 452.58C440.33 448.847 443.013 445.113 443.713 441.38C442.313 442.313 440.563 442.78 438.463 442.78C428.896 442.78 422.596 439.513 419.563 432.98C416.53 426.447 415.013 417.23 415.013 405.33C415.013 388.063 408.13 377.213 394.363 372.78C389.93 379.08 384.796 383.163 378.963 385.03C375.93 379.897 372.663 376.047 369.163 373.48C365.663 370.913 362.746 369.513 360.413 369.28C358.08 368.813 354.813 368.58 350.613 368.58H332.413Z" fill="#040267"/>
</svg>
